<?xml version="1.0" standalone="no"?><!DOCTYPE svg PUBLIC "-//W3C//DTD SVG 1.1//EN" "http://www.w3.org/Graphics/SVG/1.1/DTD/svg11.dtd"><svg width="32" height="32" viewBox="0 0 32 32" version="1.1" xmlns="http://www.w3.org/2000/svg" xmlns:xlink="http://www.w3.org/1999/xlink"><defs><style type="text/css"><![CDATA[
@font-face { font-family: ifont; src: url("http://at.alicdn.com/t/font_1442373896_4754455.eot?#iefix") format("embedded-opentype"), url("http://at.alicdn.com/t/font_1442373896_4754455.woff") format("woff"), url("http://at.alicdn.com/t/font_1442373896_4754455.ttf") format("truetype"), url("http://at.alicdn.com/t/font_1442373896_4754455.svg#ifont") format("svg"); }

]]></style></defs><g class="transform-group"><g transform="scale(0.03125, 0.03125)"><path d="M917.857053 278.646278c-0.305969-21.4925-3.681856-38.838563-10.127661-52.049446-6.452969-13.211906-16.133446-22.725584-29.02301-28.560476-12.901845-5.829775-28.563546-8.749268-46.979988-8.749268l-42.376133 0c1.828648-3.067872 3.671623-6.29231 5.525853-9.676383 1.842974-3.368724 3.678786-6.603395 5.514597-9.671267 10.453073-17.817808 14.294564-32.550347 11.515265-44.223201-2.75167-11.659551-12.119015-21.4925-28.095895-29.477358-17.805528-8.596795-31.930223-10.450003-42.374086-5.5279-10.435677 4.92108-19.037589 15.051811-25.792433 30.399357-4.904707 9.832949-10.903328 20.269649-17.965164 31.325449-7.065929 11.05273-15.807011 23.333428-26.252921 36.85028L565.48054 189.286064 565.48054 109.137653c0-17.201777-5.217838-29.167297-15.661701-35.928281-10.44591-6.751774-21.801539-10.134825-34.08019-10.134825-13.521968 0-25.344225 3.38305-35.473933 10.134825-10.129708 6.760984-15.195074 18.726503-15.195074 35.928281l0 80.150458-81.086783 0c-9.194406-15.355733-18.101263-29.02301-26.700105-40.996716-8.601912-11.974729-17.201777-24.111141-25.794479-36.391838-11.669784-15.347546-24.263613-23.804149-37.777395-25.333992-13.513782-1.528819-26.711362 3.53143-39.621393 15.204283-13.503549 12.288884-20.259416 24.106024-20.259416 35.464723 0 11.370978 6.15314 23.795962 18.425651 37.312814 2.465145 3.076058 4.604878 5.672186 6.449899 7.832386 1.835811 2.15406 3.986801 4.456498 6.450922 6.90834l-45.144176 0c-21.485337 0-38.992059 1.381463-52.503794 4.142343-13.513782 2.765997-24.112164 7.988951-31.785937 15.663748-7.68196 7.682983-12.910031 18.119683-15.662725 31.321356-2.771113 13.201673-4.14746 30.255071-4.14746 51.126424l0 91.207281c0 33.772174 17.507746 50.667983 52.513004 50.667983 15.960507 0 28.861328-4.605901 38.694277-13.817704 9.815553-9.212826 14.736633-21.808702 14.736633-37.772278l0-59.880809c0-14.740726 1.843998-24.25952 5.514597-28.559453 3.698229-4.300956 13.216-6.450922 28.572756-6.450922l526.948457 0c15.96767 0 25.486464 3.067872 28.563546 9.211802 3.067872 6.14393 0.924045 20.574594-6.452969 43.300178-4.909823 13.513782-7.68196 24.569582-8.28571 33.165354-0.620124 8.595772 0.458441 15.658631 3.222391 21.188578 2.75167 5.5279 7.071046 9.976212 12.892635 13.359262 5.836939 3.377934 13.053294 6.293333 21.643949 8.749268 10.44591 3.077082 19.505239 4.605901 27.180036 4.605901 7.68196 0 14.284331-2.14485 19.808138-6.444782 5.533017-4.305049 10.283204-11.057847 14.279215-20.268626 3.992941-9.212826 7.834432-21.493523 11.515265-36.851303C914.637732 326.238202 918.165068 300.138778 917.857053 278.646278zM703.666786 657.280828c14.127765 0 23.186072 1.842974 27.169803 5.522784 4.004197 3.687996 6.001691 11.057847 6.001691 22.113647l0 81.066317c0 31.326473 16.274662 46.991244 48.823985 46.991244 15.34857 0 27.483958-3.993964 36.381605-11.983939 8.916067-7.969509 13.370519-19.657712 13.370519-35.007305L835.414389 651.755997c0-31.936363-6.765077-54.204529-20.269649-66.791196-13.513782-12.585643-37.470403-18.892279-71.864748-18.892279l-471.672526 0c-33.792641 0-57.893548 6.756891-72.324212 20.269649-14.430664 13.503549-21.655206 35.310204-21.655206 65.413825l0 128.049375c0 15.353686 4.453429 26.718525 13.359262 34.086329 8.906857 7.368828 21.035082 11.056823 36.382629 11.056823 15.978926 0 28.266787-3.687996 36.868699-11.056823 8.591679-7.366781 12.882402-18.732643 12.882402-34.086329l0-94.888114c0-12.281721 2.311649-19.963681 6.919597-23.032576 4.597715-3.067872 13.664208-4.604878 27.16878-4.604878l150.161998 0c-3.670599 4.300956-6.28924 9.05933-7.819083 14.277168-1.537006 5.227048-2.310625 10.283204-2.310625 15.20326 0 30.714536-4.597715 55.275931-13.81054 73.699536-9.222035 18.426675-25.333992 33.782408-48.373731 46.064129-23.033599 12.289907-53.738925 22.725584-92.117001 31.317263-38.397518 8.599865-86.754876 17.812691-145.096632 27.638477-21.4925 4.308119-35.472909 9.831926-41.914622 16.58984-6.450922 6.746658-8.754385 18.11866-6.927783 34.079166 1.24127 9.211802 3.229554 16.740266 5.992481 22.572088 2.771113 5.838985 6.91755 9.976212 12.43317 12.44238 5.531993 2.455935 12.756535 3.840468 21.663392 4.136204 8.906857 0.318248 20.116153-0.455371 33.611515-2.301416 70.641897-9.211802 129.749086-20.567431 177.35943-34.078143 47.590901-13.522991 85.971024-30.715559 115.154693-51.595099 29.167297-20.88261 50.048883-45.759183 62.634526-74.618465 12.594853-28.872584 18.884093-63.265906 18.884093-103.183034 0-11.056823-3.066849-21.799492-9.204639-32.242332L703.666786 657.280828zM857.508593 859.954807c-19.647479-10.435677-37.757952-19.342534-54.339606-26.720571-16.588817-7.368828-33.323966-14.420431-50.207495-21.185508-16.896832-6.755868-35.323507-13.513782-55.283094-20.269649-19.956517-6.748704-43.139519-14.422478-69.545936-23.030529-11.111059-3.419889-20.952194-5.122671-29.534663-5.122671-3.76065 0-7.269567 0.324388-10.553357 0.983397-10.741645 2.140757-20.727067 10.901281-29.938869 26.249851-7.368828 11.057847-8.125051 22.268166-2.303462 33.629935 5.835915 11.355629 17.660218 20.421098 35.472909 27.169803 22.112624 7.989975 42.068118 15.20326 59.881832 21.656229 17.812691 6.447852 35.014468 13.195533 51.595099 20.269649 16.58063 7.059789 33.467229 14.734586 50.66696 23.030529 17.194614 8.28571 35.932374 18.270109 56.184627 29.941939 15.978926 8.591679 30.256094 12.126178 42.850947 10.589173 12.597923-1.529843 24.110117-9.67229 34.546817-24.409946 7.368828-10.454096 8.438183-22.88522 3.219321-37.31793C885.000737 880.998075 874.089224 869.166609 857.508593 859.954807zM288.187073 532.451798c9.825786 2.14178 23.023366 3.219321 39.603996 3.219321l364.818893 0c16.58063 0 29.940916-1.078565 40.08188-3.219321 10.127661-2.148943 18.107403-6.144954 23.946388-11.973706 5.838985-5.838985 9.673313-13.82282 11.508102-23.957645 1.853208-10.130731 2.7793-22.883173 2.7793-38.231743l0-55.274908c0-15.9646-1.081635-29.017894-3.229554-39.152718-2.140757-10.134825-6.28924-18.11866-12.431124-23.952528-6.144954-5.829775-14.277168-9.828856-24.428366-11.974729-10.127661-2.14485-22.867824-3.225461-38.225603-3.225461l-364.818893 0c-15.96153 0-28.861328 1.080611-38.685068 3.225461-9.825786 2.145873-17.497513 6.293333-23.032576 12.437264-5.531993 6.144954-9.212826 14.277168-11.04659 24.411993-1.854231 10.134825-2.771113 22.883173-2.771113 38.23072l0 55.274908c0 15.34857 0.916882 28.101012 2.771113 38.231743 1.833765 10.134825 5.361101 18.11866 10.578939 23.957645C270.833847 526.307867 278.363334 530.303878 288.187073 532.451798zM340.702124 420.516426c0-9.211802 4.901637-13.817704 14.733563-13.817704l309.546032 0c10.435677 0 15.654538 4.605901 15.654538 13.817704l0 18.425651c0 9.212826-5.218862 13.818727-15.654538 13.818727L355.435687 452.760804c-6.142907 0-10.136871-1.075495-11.980869-3.220345-1.836835-2.15099-2.752694-5.677303-2.752694-10.598382L340.702124 420.516426z" fill="#888"></path></g></g></svg>