<?xml version="1.0" standalone="no"?><!DOCTYPE svg PUBLIC "-//W3C//DTD SVG 1.1//EN" "http://www.w3.org/Graphics/SVG/1.1/DTD/svg11.dtd"><svg width="32" height="32" viewBox="0 0 32 32" version="1.1" xmlns="http://www.w3.org/2000/svg" xmlns:xlink="http://www.w3.org/1999/xlink"><defs><style type="text/css"><![CDATA[
@font-face { font-family: ifont; src: url("http://at.alicdn.com/t/font_1442373896_4754455.eot?#iefix") format("embedded-opentype"), url("http://at.alicdn.com/t/font_1442373896_4754455.woff") format("woff"), url("http://at.alicdn.com/t/font_1442373896_4754455.ttf") format("truetype"), url("http://at.alicdn.com/t/font_1442373896_4754455.svg#ifont") format("svg"); }

]]></style></defs><g class="transform-group"><g transform="scale(0.03125, 0.03125)"><path d="M1002.359236 193.443757c0 0-54.533253-45.314045-110.270988-69.166289-60.647764-29.070082-146.357349-27.733645-146.357349-27.733645s-60.398067-4.457522-122.29841 24.726148c-61.900343 29.184693-107.595953 68.831668-107.595953 68.831668s-63.146783-48.250934-118.957175-73.509201S260.545717 96.543823 260.545717 96.543823s-76.633501 3.89368-125.941533 26.055422-94.596349 74.853825-94.596349 74.853825l0 679.630858c0 0 69.706451-60.245106 111.271823-77.184917 41.565372-16.940834 106.593071-16.372899 106.593071-16.372899s77.884034 9.334599 124.303151 28.067242c46.421164 18.733667 133.660656 88.212064 133.660656 88.212064s55.611863-59.259662 100.245236-81.528851c75.684856-39.093367 150.709653-33.412994 150.709653-33.412994s46.103926 2.004657 110.260754 26.062586c58.328855 21.87317 126.481862 67.49523 126.481862 67.49523L1002.359236 193.443757zM492.111209 824.958758c0 0-119.348095-94.349855-234.23848-92.221378-108.2642 2.004657-149.698584 29.40368-177.767004 57.470923 1.002882-33.079396-0.504511-568.059783-0.504511-568.059783s41.60426-74.815963 181.947385-80.830957c119.290787-10.024308 222.210034 74.178443 228.557869 90.216721C493.114091 252.585739 492.111209 824.958758 492.111209 824.958758zM958.249817 802.906509c-28.06842-28.067242-103.251836-70.168106-211.516036-72.172763-114.891409-2.128477-205.341147 95.228875-205.341147 95.228875s-1.002882-572.374042 2.004741-593.424474c10.024728-16.038278 88.215767-96.230692 228.557869-90.216721 121.639373 5.294586 187.865414 78.971609 187.865414 78.971609S958.363409 770.099313 958.249817 802.906509z" fill="#777"></path></g></g></svg>